<?xml version="1.0" encoding="utf-8"?>
<!-- Generator: Adobe Illustrator 25.2.1, SVG Export Plug-In . SVG Version: 6.00 Build 0)  -->
<svg version="1.1" id="Layer_1" xmlns="http://www.w3.org/2000/svg" xmlns:xlink="http://www.w3.org/1999/xlink" x="0px" y="0px"
	 viewBox="0 0 197.1 48.3" style="enable-background:new 0 0 197.1 48.3;" xml:space="preserve">
<style type="text/css">
	.st0{fill:#6610F2;}
	.st1{fill:#00FFE7;}
	.st2{fill:#FFA205;}
	.st3{fill-rule:evenodd;clip-rule:evenodd;fill:#FFFF01;}
	.st4{fill:#FFA205;stroke:#6610F2;stroke-width:1.5;}
	.st5{fill:#00FFE7;stroke:#6610F2;stroke-width:1.5;}
</style>
<g>
	<g>
		<path class="st0" d="M0,24.2c0-12.7,10.3-23,23-23s23,10.3,23,23s-10.3,23-23,23S0,36.9,0,24.2z"/>
		<path class="st1" d="M13.9,30.5c0,0.7,0.3,1.5,0.5,1.8c0,0-0.1,0-0.3,0.1s-0.5,0.2-0.7,0.2c0-0.1-0.1-0.3-0.3-1.1
			c-0.2-0.9-0.1-2,0.1-2.7c0.3-0.7,0.3-1,1.5-2.1c1-0.9,2.7-1.2,3.3-1.2l-0.1-1.2l-0.5,0.1c-0.6,0.1-2,0.4-3,1.1
			c-1.2,0.8-1.6,1.4-2,2c-0.4,0.8-0.6,1.4-0.7,1.9c0,0.3-0.2,0.8,0.1,2.3c0.3,1.4,0.9,1.5,0.7,1.7c-0.2,0.1-0.4,0.7-0.5,0.9
			c-0.3-0.5-0.9-1.6-1-2.4c-0.1-1-0.1-2.2-0.1-2.5c0.1-0.3,0.1-1.1,0.7-2.1s1-1.6,1.5-2c0.5-0.5,1.1-0.8,1.8-1.1
			c0.7-0.3,1-0.4,1.9-0.6c0.7-0.2,1.5-0.2,1.8-0.2l0.2,3c-0.5,0.1-1.6,0.2-2,0.3c-0.6,0.2-1.2,0.4-1.5,0.6s-0.7,0.7-1,1.1
			C14.2,28.8,13.9,29.6,13.9,30.5z"/>
		<path class="st2" d="M34.1,19.3c0-0.8-0.3-1.7-0.5-2c0,0,0.1,0,0.3-0.1s0.5-0.2,0.7-0.2c0,0.1,0.1,0.4,0.3,1.2
			c0.2,1,0.1,2.2-0.1,3c-0.3,0.7-0.5,1.5-1.5,2.3s-2.7,1.3-3.3,1.3l0.1,1.3l0.5-0.1c0.6-0.1,2-0.4,3-1.2c1.2-0.9,1.6-1.5,2-2.2
			c0.4-0.8,0.6-1.6,0.7-2.1c0-0.3,0.2-0.9-0.1-2.5s-0.9-1.7-0.7-1.8c0.2-0.1,0.4-0.7,0.5-1c0.3,0.5,0.9,1.8,1,2.6c0,1.2,0,2.5,0,2.8
			c-0.1,0.7-0.1,1.2-0.7,2.3c-0.5,1.1-1,1.7-1.5,2.2s-1.1,0.8-1.8,1.2c-0.7,0.3-1,0.4-1.9,0.7c-0.7,0.2-1.5,0.2-1.8,0.2L29,23.9
			c0.5-0.1,1.6-0.2,2-0.3c0.6-0.2,1.2-0.4,1.5-0.7c0.3-0.2,0.7-0.7,1-1.2C33.8,21.2,34.1,20.3,34.1,19.3z"/>
		<path class="st3" d="M22.3,31.6c-0.5,1.7-0.9,2.3-2.1,3c-0.9,0.6-1.7,0.6-2,0.5c0,0,0,0.1,0.1,0.3c0.1,0.3,0.1,0.7,0.1,0.9
			c1.3-0.2,3.6-1.5,4.5-3.2c0.6-1.2,0.9-2.7,0.8-5.3c0-0.6-0.1-1.4-0.2-2.2c-0.2-1.7-0.4-3.7-0.1-5.5c0.4-2.6,0.9-3.3,1.6-4.4l0,0
			c0.6-0.9,2-1.9,3.3-2.1l0,0c0.1-0.4,0.3-0.8,0.4-1s0.2-0.3,0-0.3c-0.4,0.1-1.9,0.5-2.5,0.9s-1.3,0.9-1.6,1.3
			c-0.3,0.3-0.9,1-1.3,1.9s-0.8,2.6-0.9,3s-0.2,1.7-0.2,3.2c0,1,0.1,1.4,0.2,2c0,0.4,0.1,0.8,0.2,1.5C22.8,27.7,22.8,29.9,22.3,31.6
			z M28.3,14.7L28.3,14.7L28.3,14.7L28.3,14.7z M28.3,14.8c0,0-1.1,0.3-1.8,0.7c-0.8,0.5-1.6,1.4-2.1,4.3c-0.4,2-0.2,3.9,0,5.6
			c0.1,0.7,0.2,1.5,0.2,2.2c0.1,2.3-0.1,4.7-1,6.3c-0.8,1.3-2.1,2.4-3.1,2.7c-1.1,0.3-1.6,0.4-2,0.5c-0.3,0.1-0.4,0.1-0.4,0.2
			c-0.1,0.3-0.3,0.7-0.5,0.9c0.8,0.4,4-0.5,5.4-1.9s1.9-2.5,2.3-4s0.6-2.3,0.4-4.5c-0.2-3-0.3-4.7-0.3-5.6c0-1.8,0.3-4.3,1.1-5.3
			c0.5-0.6,1.5-1.3,2-1.4C28.5,15.5,28.4,15.3,28.3,14.8z"/>
		<circle class="st4" cx="32.2" cy="14.5" r="3.2"/>
		<circle class="st5" cx="15.4" cy="35.6" r="3.2"/>
	</g>
	<path d="M65.4,37.5c-1.8,0-3.5-0.3-5-0.9c-1.5-0.6-2.6-1.5-3.5-2.7s-1.3-2.6-1.4-4.2h6.6c0.1,0.9,0.4,1.7,1,2.2s1.3,0.7,2.2,0.7
		c0.9,0,1.6-0.2,2.2-0.6c0.5-0.4,0.8-1,0.8-1.8c0-0.6-0.2-1.1-0.6-1.5s-0.9-0.7-1.5-1s-1.5-0.6-2.6-0.9c-1.6-0.5-3-1-4-1.5
		s-1.9-1.2-2.7-2.2c-0.7-1-1.1-2.3-1.1-3.9c0-2.4,0.9-4.2,2.6-5.5c1.7-1.3,3.9-2,6.7-2c2.8,0,5,0.7,6.7,2s2.6,3.2,2.7,5.5h-6.7
		c0-0.8-0.3-1.5-0.9-1.9c-0.6-0.5-1.3-0.7-2.1-0.7c-0.7,0-1.3,0.2-1.8,0.6s-0.7,0.9-0.7,1.7c0,0.8,0.4,1.5,1.2,1.9
		c0.8,0.5,2,0.9,3.6,1.5s3,1.1,4,1.6s1.9,1.2,2.7,2.2c0.7,1,1.1,2.2,1.1,3.7c0,1.4-0.4,2.7-1.1,3.9s-1.8,2.1-3.2,2.8
		S67.3,37.5,65.4,37.5z M90.7,37.2l-6.1-8.4v8.4h-6.2V10.6h6.2v14.7l6.1-8.2h7.6l-8.4,10.1l8.4,10C98.3,37.2,90.7,37.2,90.7,37.2z
		 M103.7,15.1c-1.1,0-2-0.3-2.7-0.9c-0.7-0.6-1-1.4-1-2.4s0.3-1.8,1-2.4c0.7-0.6,1.6-1,2.7-1s1.9,0.3,2.6,1c0.7,0.6,1,1.4,1,2.4
		c0,0.9-0.3,1.7-1,2.4C105.7,14.7,104.8,15.1,103.7,15.1z M106.8,17.1v20.1h-6.2V17.1H106.8z M117.4,10.6v26.6h-6.2V10.6H117.4z
		 M128,10.6v26.6h-6.2V10.6H128z M135.6,15.1c-1.1,0-2-0.3-2.7-0.9c-0.7-0.6-1-1.4-1-2.4s0.3-1.8,1-2.4c0.7-0.6,1.6-1,2.7-1
		c1.1,0,1.9,0.3,2.6,1c0.7,0.6,1,1.4,1,2.4c0,0.9-0.3,1.7-1,2.4C137.5,14.7,136.6,15.1,135.6,15.1z M138.6,17.1v20.1h-6.2V17.1
		H138.6z M149.3,20c0.6-0.9,1.4-1.7,2.5-2.3c1.1-0.6,2.3-0.9,3.7-0.9c1.7,0,3.2,0.4,4.5,1.3c1.3,0.8,2.4,2,3.2,3.6s1.2,3.4,1.2,5.4
		s-0.4,3.9-1.2,5.5s-1.8,2.8-3.2,3.6c-1.3,0.8-2.8,1.3-4.5,1.3c-1.4,0-2.7-0.3-3.7-0.8c-1.1-0.6-1.9-1.3-2.5-2.3v2.8h-6.2V10.6h6.2
		V20z M158,27.2c0-1.5-0.4-2.7-1.3-3.6c-0.8-0.9-1.9-1.3-3.1-1.3c-1.2,0-2.3,0.4-3.1,1.3s-1.3,2.1-1.3,3.6s0.4,2.7,1.3,3.6
		c0.9,0.9,1.9,1.3,3.1,1.3s2.3-0.4,3.1-1.3C157.6,29.9,158,28.7,158,27.2z M173.7,10.6v26.6h-6.2V10.6H173.7z M197.1,26.9
		c0,0.6,0,1.2-0.1,1.8h-13.9c0.1,1.2,0.5,2.2,1.2,2.9c0.7,0.6,1.6,1,2.6,1c1.5,0,2.6-0.6,3.2-1.9h6.6c-0.3,1.3-0.9,2.5-1.8,3.6
		c-0.9,1.1-2,1.9-3.3,2.5s-2.8,0.9-4.4,0.9c-2,0-3.7-0.4-5.3-1.3c-1.5-0.8-2.7-2-3.6-3.6c-0.9-1.6-1.3-3.4-1.3-5.5s0.4-3.9,1.3-5.5
		c0.9-1.6,2.1-2.8,3.6-3.6c1.5-0.8,3.3-1.3,5.3-1.3c1.9,0,3.7,0.4,5.2,1.2c1.5,0.8,2.7,2,3.5,3.5C196.7,23.1,197.1,24.9,197.1,26.9z
		 M190.8,25.2c0-1.1-0.4-1.9-1.1-2.5c-0.7-0.6-1.6-0.9-2.7-0.9c-1,0-1.9,0.3-2.6,0.9c-0.7,0.6-1.1,1.5-1.3,2.6h7.7L190.8,25.2
		L190.8,25.2z"/>
</g>
</svg>
